<svg xmlns="http://www.w3.org/2000/svg" viewBox="0 0 464 464">
  <g>
    <path fill="#9a3412" d="M403.626 183.447s47.741 4.389 58.032 63.222c12.574 71.883-29.574 89.812-29.574 89.812s-27.986-62.919-28.458-69.996 0-83.038 0-83.038z"/>

    <path fill="#fed7aa" d="M156.228 448.65c47.443-8.752 76.554-66.527 65.021-129.045-11.532-62.518-59.341-106.104-106.784-97.353l-48.411 5.897 37.484 227.045z"/>

    <ellipse cx="93.657" cy="341.994" rx="87.352" ry="115.109"
      transform="rotate(-10.43 93.923 342.752)" fill="#fdba74"/>

    <path fill="#f97316" d="m420.36 200.109-18.82 36.03-79.19-68.41c15.93-96.96-56.97-122.31-76.06-127.23C68.15 34.859 129 311.629 129 311.629l-100.12-37.78c-19.47-176.48 72-280.85 222.34-264.48 79.97 8.7 122.72 62.11 145.23 110.2 19.79 42.33 23.91 80.54 23.91 80.54z"/>

    <path fill="#9a3412" d="m420.36 200.109-18.82 36.03-79.19-68.41c15.93-96.96-56.97-122.31-76.06-127.23 20.85.65 44.99 5.18 72.87 14.47 0 0 41.45 7.4 77.29 64.6 19.79 42.33 23.91 80.54 23.91 80.54z"/>

    <path fill="#f97316" d="M2.451 355.114c9.984 54.132 48.563 94.535 87.35 87.397 38.056-7.02 60.627-57.523 50.427-112.809-10.191-55.286-49.304-94.408-87.35-87.388-15.947 2.944-29.176 13.522-38.414 28.893-12.806 21.299-17.939 51.796-12.013 83.907z"/>

    <path fill="#fdba74" d="M383.503 382.836c45.612-8.414 73.6-63.96 62.512-124.066s-57.052-102.01-102.664-93.596l-46.543 5.669 36.038 218.284z"/>

    <ellipse cx="312.77" cy="280.296" rx="83.981" ry="110.667"
      transform="rotate(-10.43 313.522 280.878)" fill="#fed7aa"/>

    <path fill="#f97316" d="M350.3 297.479c-2.833 58.501-61.808 59.922-72.65 6.13-3.41-16.87-1.7-32.86 2.24-46.87 23.897-35.998 73.084-14.4 70.41 40.74z"/>

    <path fill="#ffedd5" d="M324 203.499c.3 3.33-17.19 8.95-24.59 37.26-7.22 2.48-14.03 7.71-19.52 15.98-3.94 14.01-5.65 30-2.24 46.87 1.81 8.98 4.96 16.42 8.97 22.31-15.45 14.77-42.18-4.06-40.33-60.92 2.71-83.5 74.71-95 77.71-61.5z"/>
  </g>
</svg>